<?xml version="1.0" encoding="utf-8"?>
<!-- Generator: Adobe Illustrator 24.0.0, SVG Export Plug-In . SVG Version: 6.00 Build 0)  -->
<svg version="1.1" id="Capa_1" xmlns="http://www.w3.org/2000/svg" xmlns:xlink="http://www.w3.org/1999/xlink" x="0px" y="0px"
	 viewBox="0 0 601 600" style="enable-background:new 0 0 601 600;" xml:space="preserve">
<style type="text/css">
	.st0{clip-path:url(#SVGID_2_);}
	.st1{fill:#343A40;stroke:#6C757D;stroke-width:10;stroke-miterlimit:10;}
	.st2{fill:none;stroke:#6C757D;stroke-width:10;stroke-miterlimit:10;}
	.st3{fill:#17A2B8;}
</style>
<g>
	<defs>
		<rect id="SVGID_1_" x="0.5" y="0.5" width="600" height="600"/>
	</defs>
	<clipPath id="SVGID_2_">
		<use xlink:href="#SVGID_1_"  style="overflow:visible;"/>
	</clipPath>
	<g class="st0">
		<polygon class="st1" points="391.98,142.29 209.81,142.29 118.72,298.96 209.81,455.62 391.98,455.62 483.06,298.96 		"/>
		<polygon class="st2" points="118.62,-14.38 -63.55,-14.38 -154.64,142.29 -63.55,298.96 118.62,298.96 209.7,142.29 		"/>
		<polygon class="st2" points="664.48,300 482.31,300 391.22,456.67 482.31,613.33 664.48,613.33 755.56,456.67 		"/>
		<polygon class="st2" points="664.48,-13.33 482.31,-13.33 391.22,143.33 482.31,300 664.48,300 755.56,143.33 		"/>
		<polygon class="st2" points="391.02,-170 208.85,-170 117.77,-13.33 208.85,143.33 391.02,143.33 482.11,-13.33 		"/>
		<polygon class="st2" points="118.62,300 -63.55,300 -154.64,456.67 -63.55,613.33 118.62,613.33 209.7,456.67 		"/>
		<polygon class="st2" points="392.07,456.67 209.9,456.67 118.82,613.33 209.9,770 392.07,770 483.16,613.33 		"/>
	</g>
	<g class="st0">
		<g>
			<path class="st3" d="M355.57,358.12c0.84-4.33,1.38-8.76,1.58-13.28L341.8,340c-0.04-4-0.38-7.92-1.02-11.75l14.16-8.01
				c-0.99-4.31-2.3-8.5-3.88-12.55l-16,1.82c-1.7-3.74-3.7-7.31-5.97-10.69l9.65-13.04c-2.62-3.44-5.48-6.69-8.56-9.71l-13.88,8.17
				c-3.15-2.77-6.53-5.29-10.11-7.51l3.51-15.83c-3.73-2.02-7.63-3.79-11.66-5.28l-9.37,13.13c-4.03-1.24-8.22-2.15-12.51-2.7
				l-3.22-15.83c-2.11-0.15-4.23-0.23-6.38-0.23c-2.14,0-4.27,0.08-6.38,0.23l-3.22,15.83c-4.29,0.55-8.47,1.46-12.51,2.7
				l-9.37-13.13c-4.03,1.49-7.92,3.26-11.66,5.28l3.51,15.83c-3.58,2.22-6.96,4.74-10.11,7.51l-13.88-8.17
				c-3.08,3.03-5.94,6.27-8.56,9.71l9.65,13.04c-2.27,3.38-4.27,6.95-5.97,10.69l-16-1.82c-1.58,4.05-2.88,8.24-3.88,12.55
				l14.16,8.01c-0.64,3.83-0.98,7.75-1.02,11.75L176,344.84c0.2,4.52,0.74,8.95,1.58,13.28l16.19,1.56
				c0.96,3.69,2.2,7.27,3.68,10.72l-12.07,10.68c2.03,4.08,4.36,7.98,6.96,11.67l15.43-5.16c2.27,2.85,4.75,5.53,7.41,8.02
				l-6.7,14.69c3.52,2.94,7.26,5.62,11.2,8l11.98-10.97c3.13,1.64,6.39,3.07,9.76,4.27l-0.14,16.18c4.39,1.27,8.92,2.23,13.56,2.83
				l6.47-14.88c1.74,0.12,3.5,0.19,5.27,0.19c1.77,0,3.53-0.07,5.27-0.19l6.47,14.88c4.64-0.6,9.17-1.55,13.56-2.83l-0.14-16.18
				c3.37-1.2,6.63-2.63,9.76-4.27l11.98,10.97c3.94-2.38,7.68-5.06,11.2-8l-6.7-14.69c2.66-2.49,5.14-5.17,7.41-8.02l15.43,5.16
				c2.6-3.7,4.93-7.6,6.95-11.67l-12.07-10.68c1.48-3.45,2.72-7.03,3.68-10.72L355.57,358.12z M266.58,383.24
				c-23.72,0-42.94-19.23-42.94-42.94c0-23.72,19.23-42.94,42.94-42.94c23.72,0,42.94,19.23,42.94,42.94
				C309.52,364.02,290.29,383.24,266.58,383.24z"/>
			<path class="st3" d="M266.58,312.46c-15.37,0-27.84,12.46-27.84,27.84c0,15.37,12.46,27.84,27.84,27.84
				c15.37,0,27.84-12.46,27.84-27.84C294.42,324.93,281.95,312.46,266.58,312.46z"/>
		</g>
		<path class="st3" d="M404.44,245.36l2.72-13.68l-9.9-3.56c-0.05-4.53-0.81-8.94-2.19-13.11l8.24-6.27l-6.71-12.22l-9.96,3.67
			c-2.87-3.32-6.24-6.21-10.04-8.55l2.31-10.24l-13-5.05l-5.38,9.4c-4.4-0.69-8.76-0.68-12.97-0.06l-4.92-9.54l-13.2,4.48l1.96,10.9
			c-3.64,2.21-6.94,4.95-9.8,8.14l-10.12-4.23l-7.23,11.92l8.64,7.19c-0.61,1.81-1.13,3.66-1.51,5.58c-0.46,2.29-0.72,4.56-0.8,6.82
			l-10.57,3.29l2.12,13.78l11.24-0.04c1.51,3.97,3.59,7.68,6.17,11.03l-5.95,9.26l10.48,9.19l8.46-7.15
			c3.65,2.07,7.66,3.63,11.97,4.59l1.37,10.72l13.94,0.3l1.84-10.68c4.34-0.79,8.5-2.23,12.34-4.25l7.75,7.15l10.87-8.73l-5.34-9.16
			c2.8-3.37,5.1-7.19,6.79-11.38L404.44,245.36z M349.96,248.39c-10.95-2.18-18.05-12.82-15.88-23.76
			c2.18-10.95,12.82-18.05,23.76-15.88c10.95,2.18,18.06,12.82,15.88,23.76C371.55,243.46,360.91,250.57,349.96,248.39z"/>
	</g>
</g>
</svg>
