<?xml version="1.0" encoding="utf-8"?>
<!-- Generator: Adobe Illustrator 24.0.0, SVG Export Plug-In . SVG Version: 6.00 Build 0)  -->
<svg version="1.1" id="Capa_1" xmlns="http://www.w3.org/2000/svg" xmlns:xlink="http://www.w3.org/1999/xlink" x="0px" y="0px"
	 viewBox="0 0 601 600" style="enable-background:new 0 0 601 600;" xml:space="preserve">
<style type="text/css">
	.st0{clip-path:url(#SVGID_2_);}
	.st1{fill:#343A40;stroke:#6C757D;stroke-width:10;stroke-miterlimit:10;}
	.st2{fill:#17A2B8;}
</style>
<g>
	<defs>
		<rect id="SVGID_1_" x="0.5" y="0.5" width="600" height="600"/>
	</defs>
	<clipPath id="SVGID_2_">
		<use xlink:href="#SVGID_1_"  style="overflow:visible;"/>
	</clipPath>
	<g class="st0">
		<polygon class="st1" points="391.98,142.29 209.81,142.29 118.72,298.96 209.81,455.62 391.98,455.62 483.06,298.96 		"/>
		<polygon class="st1" points="118.62,-14.38 -63.55,-14.38 -154.64,142.29 -63.55,298.96 118.62,298.96 209.7,142.29 		"/>
		<polygon class="st1" points="664.48,300 482.31,300 391.22,456.67 482.31,613.33 664.48,613.33 755.56,456.67 		"/>
		<polygon class="st1" points="664.48,-13.33 482.31,-13.33 391.22,143.33 482.31,300 664.48,300 755.56,143.33 		"/>
		<polygon class="st1" points="391.02,-170 208.85,-170 117.77,-13.33 208.85,143.33 391.02,143.33 482.11,-13.33 		"/>
		<polygon class="st1" points="118.62,300 -63.55,300 -154.64,456.67 -63.55,613.33 118.62,613.33 209.7,456.67 		"/>
		<polygon class="st1" points="392.07,456.67 209.9,456.67 118.82,613.33 209.9,770 392.07,770 483.16,613.33 		"/>
	</g>
	<g class="st0">
		<path class="st2" d="M300.91,221.25L298.63,210l-8.65,0.44c-1.47-3.42-3.46-6.53-5.83-9.26l4.26-7.38l-8.98-7.15l-6.4,5.95
			c-3.23-1.61-6.72-2.73-10.34-3.3l-1.5-8.51l-11.48,0.3l-1.1,8.85c-3.56,0.88-6.87,2.27-9.87,4.08l-6.77-5.68l-8.6,7.6l4.96,7.65
			c-2.06,2.84-3.7,5.97-4.86,9.3l-9.03,0l-1.7,11.35l8.85,2.72c0.11,1.57,0.31,3.14,0.63,4.72c0.38,1.88,0.91,3.69,1.56,5.43
			l-6.98,5.85l5.99,9.79l8.52-3.61c2.41,2.53,5.17,4.69,8.19,6.42l-1.57,8.92l10.88,3.65l4.15-8.12c3.43,0.41,6.97,0.32,10.54-0.32
			l4.45,7.7l10.68-4.2l-2-8.69c3.04-1.98,5.74-4.4,8.02-7.15l8.16,2.97l5.48-10.08l-6.97-5.26c1.05-3.45,1.58-7.08,1.54-10.8
			L300.91,221.25z M260.51,240.88c-9,1.83-17.78-3.99-19.61-13c-1.83-9,3.99-17.78,13-19.61c9-1.83,17.79,3.99,19.61,13
			C275.34,230.27,269.52,239.05,260.51,240.88z"/>
		<g>
			<path class="st2" d="M340.55,364.19c0.77-3.96,1.26-8.03,1.45-12.17l-14.07-4.44c-0.03-3.66-0.35-7.26-0.93-10.76l12.97-7.34
				c-0.91-3.95-2.1-7.79-3.55-11.5l-14.66,1.67c-1.56-3.43-3.39-6.7-5.47-9.8l8.84-11.95c-2.4-3.15-5.02-6.13-7.84-8.9l-12.72,7.49
				c-2.88-2.54-5.98-4.85-9.26-6.88l3.21-14.5c-3.42-1.85-6.99-3.47-10.68-4.84l-8.59,12.04c-3.7-1.14-7.53-1.97-11.46-2.47
				l-2.95-14.5c-1.93-0.13-3.88-0.21-5.84-0.21c-1.97,0-3.91,0.07-5.84,0.21l-2.95,14.5c-3.93,0.5-7.77,1.34-11.46,2.47l-8.59-12.04
				c-3.69,1.37-7.26,2.98-10.68,4.84l3.22,14.5c-3.28,2.04-6.38,4.34-9.26,6.88l-12.72-7.49c-2.82,2.77-5.44,5.75-7.84,8.9
				l8.84,11.95c-2.08,3.1-3.91,6.37-5.47,9.8l-14.66-1.67c-1.45,3.71-2.64,7.55-3.55,11.5l12.97,7.34c-0.58,3.51-0.9,7.1-0.93,10.76
				L176,352.02c0.19,4.14,0.68,8.2,1.45,12.17l14.83,1.43c0.88,3.38,2.01,6.66,3.37,9.82l-11.06,9.78c1.86,3.73,4,7.31,6.38,10.7
				l14.14-4.73c2.08,2.61,4.35,5.07,6.79,7.35L205.76,412c3.22,2.69,6.65,5.15,10.26,7.33L227,409.27c2.87,1.51,5.86,2.82,8.95,3.91
				l-0.13,14.83c4.02,1.17,8.17,2.04,12.42,2.59l5.93-13.63c1.6,0.11,3.21,0.17,4.83,0.17c1.62,0,3.24-0.06,4.83-0.17l5.93,13.63
				c4.25-0.55,8.4-1.42,12.42-2.59l-0.13-14.83c3.09-1.1,6.08-2.41,8.95-3.91l10.97,10.06c3.61-2.18,7.04-4.64,10.26-7.33
				l-6.13-13.46c2.44-2.28,4.71-4.73,6.79-7.35l14.14,4.73c2.38-3.39,4.51-6.96,6.37-10.7l-11.06-9.78
				c1.36-3.16,2.49-6.44,3.37-9.82L340.55,364.19z M259,387.21c-21.73,0-39.35-17.62-39.35-39.35c0-21.73,17.62-39.35,39.35-39.35
				c21.73,0,39.35,17.62,39.35,39.35C298.35,369.59,280.73,387.21,259,387.21z"/>
			<path class="st2" d="M259,322.35c-14.09,0-25.51,11.42-25.51,25.51c0,14.09,11.42,25.51,25.51,25.51
				c14.09,0,25.51-11.42,25.51-25.51C284.51,333.77,273.09,322.35,259,322.35z"/>
		</g>
		<path class="st2" d="M362.93,197.79l-1.57-7.73l-5.94,0.31c-1.01-2.35-2.38-4.49-4.01-6.37l2.93-5.08l-6.17-4.91l-4.4,4.09
			c-2.22-1.1-4.62-1.88-7.11-2.27l-1.03-5.85l-7.89,0.2l-0.75,6.08c-2.45,0.6-4.72,1.56-6.78,2.8l-4.65-3.91l-5.91,5.22l3.41,5.26
			c-1.42,1.95-2.54,4.1-3.34,6.39l-6.21,0l-1.17,7.8l6.08,1.87c0.07,1.08,0.21,2.16,0.43,3.24c0.26,1.29,0.62,2.54,1.07,3.74
			l-4.8,4.02l4.12,6.73l5.86-2.48c1.66,1.74,3.55,3.23,5.63,4.41l-1.08,6.13l7.48,2.51l2.85-5.58c2.36,0.28,4.79,0.22,7.25-0.22
			l3.06,5.29l7.34-2.89l-1.37-5.98c2.09-1.36,3.95-3.02,5.51-4.91l5.61,2.04l3.77-6.93l-4.79-3.62c0.72-2.37,1.09-4.87,1.06-7.42
			L362.93,197.79z M335.16,211.28c-6.19,1.26-12.22-2.75-13.48-8.93c-1.26-6.19,2.74-12.23,8.93-13.48
			c6.19-1.26,12.23,2.74,13.48,8.93C345.36,203.99,341.36,210.02,335.16,211.28z"/>
		<path class="st2" d="M427,275.41l-2.77-13.67l-10.5,0.54c-1.79-4.16-4.2-7.94-7.08-11.25l5.18-8.97l-10.91-8.69l-7.77,7.23
			c-3.93-1.95-8.16-3.32-12.56-4.01l-1.82-10.34l-13.94,0.36l-1.33,10.75c-4.33,1.07-8.34,2.76-11.99,4.96l-8.22-6.9l-10.45,9.23
			l6.02,9.29c-2.5,3.45-4.49,7.25-5.9,11.29l-10.97,0l-2.07,13.79l10.75,3.3c0.13,1.9,0.37,3.81,0.76,5.73
			c0.46,2.28,1.1,4.49,1.89,6.6l-8.48,7.11l7.28,11.89l10.35-4.38c2.93,3.08,6.28,5.7,9.95,7.8l-1.91,10.84l13.22,4.43l5.04-9.87
			c4.17,0.5,8.47,0.39,12.81-0.39l5.4,9.36l12.97-5.1l-2.42-10.56c3.7-2.4,6.98-5.34,9.75-8.68l9.91,3.61l6.66-12.25l-8.46-6.39
			c1.28-4.19,1.92-8.6,1.87-13.11L427,275.41z M377.93,299.25c-10.94,2.22-21.6-4.85-23.82-15.79c-2.22-10.94,4.85-21.6,15.79-23.82
			c10.94-2.22,21.6,4.85,23.82,15.79C395.93,286.36,388.87,297.03,377.93,299.25z"/>
	</g>
</g>
</svg>
